<?xml version="1.0" encoding="UTF-8"?>
<svg id="Layer_1" data-name="Layer 1" xmlns="http://www.w3.org/2000/svg" viewBox="0 0 1366 768">
  <defs>
    <style>
      .cls-1 {
        fill: #48cb73;
      }

      .cls-2 {
        fill: #153748;
      }
    </style>
  </defs>
  <path class="cls-2" d="M319.91,611.73h-169.91v-121.73l.26-.47v-210.6h-47.45v-122.2l169.19.27.46,121.93v210.6h47.45v122.2Z"/>
  <path class="cls-2" d="M727.45,278.93h121.55v59.15c0,50.27-17.77,93.17-53.3,128.7s-78.22,53.3-128.05,53.3h-183.95v91.65h-122.2V156.73h365.95v122.2h-243.75v118.95h183.95c16.46,0,30.55-5.85,42.25-17.55,11.7-11.7,17.55-25.78,17.55-42.25v-59.15Z"/>
  <path class="cls-2" d="M962.75,611.73h-150.8l237.25-323.7h-131.95l-105.3-131.3h154.7l93.6,116.35,84.5-116.35h154.7l-239.2,323.7h133.9l105.3,131.3h-154.7l-94.9-118.3-87.1,118.3ZM1299.45,611.73l-105.3-131.3"/>
  <polygon class="cls-1" points="1049.2 288.03 917.25 288.03 811.95 156.73 966.65 156.73 1055.7 267.43 1060.25 273.08 1049.2 288.03"/>
  <polygon class="cls-1" points="1060.25 480.43 1194.15 480.43 1299.45 611.73 1144.75 611.73 1049.85 493.43 1060.25 480.43"/>
</svg>